<mxfile host="app.diagrams.net" agent="Mozilla/5.0 (Windows NT 10.0; Win64; x64) AppleWebKit/537.36 (KHTML, like Gecko) Chrome/128.0.0.0 Safari/537.36" version="24.7.7">
  <diagram name="PÃ¡gina-1" id="IHEpkmDW0GbL0TSdh8l_">
    <mxGraphModel dx="1235" dy="655" grid="1" gridSize="10" guides="1" tooltips="1" connect="1" arrows="1" fold="1" page="1" pageScale="1" pageWidth="827" pageHeight="1169" math="0" shadow="0">
      <root>
        <mxCell id="0" />
        <mxCell id="1" parent="0" />
        <mxCell id="A5cxYsMhLrtSdASNx0yI-1" value="user" style="html=1;whiteSpace=wrap;" vertex="1" parent="1">
          <mxGeometry x="180" y="330" width="110" height="50" as="geometry" />
        </mxCell>
        <mxCell id="A5cxYsMhLrtSdASNx0yI-9" style="edgeStyle=orthogonalEdgeStyle;rounded=0;orthogonalLoop=1;jettySize=auto;html=1;entryX=0.5;entryY=1;entryDx=0;entryDy=0;endArrow=none;endFill=0;" edge="1" parent="1" source="A5cxYsMhLrtSdASNx0yI-2" target="A5cxYsMhLrtSdASNx0yI-1">
          <mxGeometry relative="1" as="geometry" />
        </mxCell>
        <mxCell id="A5cxYsMhLrtSdASNx0yI-2" value="nome" style="ellipse;whiteSpace=wrap;html=1;align=center;" vertex="1" parent="1">
          <mxGeometry x="120" y="450" width="100" height="40" as="geometry" />
        </mxCell>
        <mxCell id="A5cxYsMhLrtSdASNx0yI-8" style="edgeStyle=orthogonalEdgeStyle;rounded=0;orthogonalLoop=1;jettySize=auto;html=1;entryX=0.5;entryY=1;entryDx=0;entryDy=0;endArrow=none;endFill=0;" edge="1" parent="1" source="A5cxYsMhLrtSdASNx0yI-3" target="A5cxYsMhLrtSdASNx0yI-1">
          <mxGeometry relative="1" as="geometry" />
        </mxCell>
        <mxCell id="A5cxYsMhLrtSdASNx0yI-3" value="cpf" style="ellipse;whiteSpace=wrap;html=1;align=center;fontStyle=4;" vertex="1" parent="1">
          <mxGeometry x="50" y="380" width="100" height="40" as="geometry" />
        </mxCell>
        <mxCell id="A5cxYsMhLrtSdASNx0yI-10" style="edgeStyle=orthogonalEdgeStyle;rounded=0;orthogonalLoop=1;jettySize=auto;html=1;entryX=0.5;entryY=1;entryDx=0;entryDy=0;endArrow=none;endFill=0;" edge="1" parent="1" source="A5cxYsMhLrtSdASNx0yI-4" target="A5cxYsMhLrtSdASNx0yI-1">
          <mxGeometry relative="1" as="geometry" />
        </mxCell>
        <mxCell id="A5cxYsMhLrtSdASNx0yI-4" value="email" style="ellipse;whiteSpace=wrap;html=1;align=center;" vertex="1" parent="1">
          <mxGeometry x="260" y="450" width="100" height="40" as="geometry" />
        </mxCell>
        <mxCell id="A5cxYsMhLrtSdASNx0yI-11" style="edgeStyle=orthogonalEdgeStyle;rounded=0;orthogonalLoop=1;jettySize=auto;html=1;entryX=0.5;entryY=1;entryDx=0;entryDy=0;endArrow=none;endFill=0;" edge="1" parent="1" source="A5cxYsMhLrtSdASNx0yI-5" target="A5cxYsMhLrtSdASNx0yI-1">
          <mxGeometry relative="1" as="geometry" />
        </mxCell>
        <mxCell id="A5cxYsMhLrtSdASNx0yI-5" value="senha" style="ellipse;whiteSpace=wrap;html=1;align=center;" vertex="1" parent="1">
          <mxGeometry x="330" y="380" width="100" height="40" as="geometry" />
        </mxCell>
      </root>
    </mxGraphModel>
  </diagram>
</mxfile>
